<svg xmlns="http://www.w3.org/2000/svg" viewBox="0 0 320 190">
  <defs>
    <linearGradient id="body" x1="0" y1="0" x2="0" y2="1">
      <stop offset="0" stop-color="#f8fafc"/>
      <stop offset="1" stop-color="#cbd5e1"/>
    </linearGradient>
    <linearGradient id="grip" x1="0" y1="0" x2="0" y2="1">
      <stop offset="0" stop-color="#273449"/>
      <stop offset="1" stop-color="#111827"/>
    </linearGradient>
  </defs>
  <path fill="url(#grip)" d="M90 49c-22 2-39 14-49 34-13 26-24 59-25 78-1 15 8 25 21 25 14 0 25-10 35-25l23-35h130l23 35c10 15 21 25 35 25 13 0 22-10 21-25-1-19-12-52-25-78-10-20-27-32-49-34l-30-3h-80z"/>
  <path fill="url(#body)" d="M88 39c-25 3-43 17-52 41-8 21-16 45-18 61-2 14 5 24 17 24 12 0 22-9 31-23l29-45h130l29 45c9 14 19 23 31 23 12 0 19-10 17-24-2-16-10-40-18-61-9-24-27-38-52-41l-34-4h-76z"/>
  <path fill="#0f172a" d="M111 35h98l-13 63h-72z"/>
  <path fill="#00a7ff" opacity=".8" d="M119 39h82l-3 13h-76z"/>
  <rect x="130" y="57" width="60" height="29" rx="7" fill="#1e293b" stroke="#64748b" stroke-width="2"/>
  <circle cx="116" cy="116" r="14" fill="#111827"/>
  <circle cx="204" cy="116" r="14" fill="#111827"/>
  <circle cx="116" cy="116" r="8" fill="#334155"/>
  <circle cx="204" cy="116" r="8" fill="#334155"/>
  <path fill="#263247" d="M71 77h14v14h14v14H85v14H71v-14H57V91h14z"/>
  <circle cx="250" cy="84" r="7" fill="#22c55e"/>
  <circle cx="268" cy="101" r="7" fill="#ef4444"/>
  <circle cx="232" cy="101" r="7" fill="#38bdf8"/>
  <circle cx="250" cy="118" r="7" fill="#a78bfa"/>
  <circle cx="145" cy="105" r="4" fill="#64748b"/>
  <circle cx="175" cy="105" r="4" fill="#64748b"/>
  <path d="M152 103h16" stroke="#94a3b8" stroke-width="3" stroke-linecap="round"/>
</svg>
